<svg width="441" height="116" viewBox="0 0 441 116" fill="none" xmlns="http://www.w3.org/2000/svg">
<rect x="45" y="21" width="347" height="94" rx="47" fill="#2C83B6"/>
<path d="M420.201 69.1294L432.591 74.6512" stroke="white" stroke-width="4" stroke-linecap="round"/>
<path d="M423.692 57.8079L437.214 58.888" stroke="white" stroke-width="4" stroke-linecap="round"/>
<path d="M421.225 46.8252L433.475 40.9999" stroke="white" stroke-width="4" stroke-linecap="round"/>
<path d="M20.1609 69.1294L7.77101 74.6512" stroke="white" stroke-width="4" stroke-linecap="round"/>
<path d="M16.6697 57.8079L3.14812 58.888" stroke="white" stroke-width="4" stroke-linecap="round"/>
<path d="M19.1367 46.8252L6.88661 40.9999" stroke="white" stroke-width="4" stroke-linecap="round"/>
<g clip-path="url(#clip0_333_163)">
<rect x="45.5298" y="11.5605" width="346.524" height="93.8239" rx="46.9119" fill="#89CCF7"/>
<path d="M163.318 76.5044C160.673 76.5044 158.2 76.0731 155.9 75.2106C153.6 74.2905 151.789 73.0829 150.466 71.5878C149.833 70.8978 149.517 70.0927 149.517 69.1727C149.517 68.1951 149.891 67.3325 150.638 66.585C151.386 65.8374 152.277 65.4637 153.312 65.4637C154.29 65.4637 155.124 65.8087 155.814 66.4987C156.791 67.4188 158.028 68.1376 159.523 68.6551C161.018 69.1727 162.484 69.4314 163.922 69.4314C165.417 69.4314 166.711 69.1152 167.803 68.4826C168.896 67.7926 169.442 66.7287 169.442 65.2911C169.442 64.0836 168.925 63.1635 167.89 62.531C166.912 61.8409 165.244 61.2946 162.887 60.8921C158.689 60.202 155.526 59.052 153.399 57.4419C151.271 55.7742 150.207 53.4453 150.207 50.4551C150.207 47.2349 151.443 44.676 153.916 42.7784C156.389 40.8232 159.638 39.8457 163.663 39.8457C167.803 39.8457 171.11 40.9095 173.582 43.0371C174.56 43.8422 175.049 44.791 175.049 45.8836C175.049 46.8036 174.675 47.6087 173.928 48.2987C173.237 48.9313 172.404 49.2476 171.426 49.2476C170.679 49.2476 169.988 49.0463 169.356 48.6438C167.171 47.2637 164.871 46.5736 162.455 46.5736C161.018 46.5736 159.81 46.8611 158.833 47.4362C157.855 48.0112 157.366 48.8738 157.366 50.0239C157.366 51.2314 158.114 52.1803 159.609 52.8703C161.162 53.5603 163.404 54.1929 166.337 54.7679C167.947 55.0554 169.528 55.573 171.081 56.3205C172.691 57.0106 174.014 58.0744 175.049 59.512C176.141 60.9496 176.688 62.9047 176.688 65.3774C176.688 68.6551 175.423 71.3291 172.892 73.3992C170.42 75.4693 167.228 76.5044 163.318 76.5044ZM186.637 76.5044C185.545 76.5044 184.625 76.1594 183.877 75.4693C183.13 74.7793 182.756 73.9167 182.756 72.8817V43.9859C182.756 42.8934 183.13 42.0021 183.877 41.312C184.625 40.622 185.545 40.2769 186.637 40.2769C187.788 40.2769 188.708 40.622 189.398 41.312C190.145 42.0021 190.519 42.8934 190.519 43.9859V52.2665C190.519 53.4166 191.094 53.9916 192.244 53.9916H203.889C205.039 53.9916 205.614 53.4166 205.614 52.2665V43.9859C205.614 42.8934 205.959 42.0021 206.649 41.312C207.396 40.622 208.345 40.2769 209.495 40.2769C210.645 40.2769 211.565 40.622 212.255 41.312C213.003 42.0021 213.377 42.8934 213.377 43.9859V72.8817C213.377 73.9742 213.003 74.8655 212.255 75.5556C211.565 76.1881 210.645 76.5044 209.495 76.5044C208.403 76.5044 207.483 76.1881 206.735 75.5556C205.988 74.8655 205.614 73.9742 205.614 72.8817V62.7897C205.614 61.6396 205.039 61.0646 203.889 61.0646H192.244C191.094 61.0646 190.519 61.6396 190.519 62.7897V72.8817C190.519 73.9742 190.145 74.8655 189.398 75.5556C188.708 76.1881 187.788 76.5044 186.637 76.5044ZM237.469 76.5044C234.076 76.5044 231 75.6993 228.24 74.0892C225.537 72.4216 223.381 70.179 221.771 67.3613C220.218 64.5436 219.442 61.4384 219.442 58.0457C219.442 54.5379 220.218 51.4327 221.771 48.73C223.381 45.9698 225.537 43.8134 228.24 42.2608C230.942 40.6507 234.019 39.8457 237.469 39.8457C240.919 39.8457 243.967 40.6507 246.612 42.2608C249.315 43.8134 251.414 45.9698 252.909 48.73C254.462 51.4327 255.238 54.5379 255.238 58.0457C255.238 61.4959 254.462 64.6298 252.909 67.4475C251.356 70.2077 249.229 72.4216 246.526 74.0892C243.881 75.6993 240.862 76.5044 237.469 76.5044ZM237.469 69.6039C240.402 69.6039 242.788 68.5114 244.628 66.3262C246.526 64.1411 247.475 61.3809 247.475 58.0457C247.475 54.7104 246.526 51.979 244.628 49.8513C242.788 47.7237 240.402 46.6599 237.469 46.6599C234.479 46.6599 232.006 47.7237 230.051 49.8513C228.153 51.979 227.205 54.7104 227.205 58.0457C227.205 61.3809 228.153 64.1411 230.051 66.3262C232.006 68.5114 234.479 69.6039 237.469 69.6039ZM265.144 76.5044C264.109 76.5044 263.189 76.1594 262.384 75.4693C261.636 74.7218 261.262 73.8592 261.262 72.8817V46.3149C261.262 44.6472 261.78 43.2959 262.815 42.2608C263.85 41.2258 265.201 40.7082 266.869 40.7082H275.581C279.031 40.7082 281.877 41.6858 284.12 43.6409C286.42 45.5961 287.57 48.1837 287.57 51.4039C287.57 54.9117 286.449 57.7581 284.206 59.9433C281.964 62.1284 279.117 63.221 275.667 63.221H270.578C269.428 63.221 268.853 63.796 268.853 64.9461L269.025 72.8817C269.025 73.8592 268.623 74.7218 267.818 75.4693C267.07 76.1594 266.179 76.5044 265.144 76.5044ZM270.147 56.3205H274.718C278.283 56.3205 280.066 54.8542 280.066 51.9215C280.066 49.0463 278.398 47.6087 275.063 47.6087H270.147C269.284 47.6087 268.853 48.04 268.853 48.9025V55.0267C268.853 55.8893 269.284 56.3205 270.147 56.3205Z" fill="white"/>
</g>
<rect x="47.7529" y="13.7836" width="342.078" height="89.3777" rx="44.6889" stroke="#BEE5FF" stroke-width="4.44618"/>
<g clip-path="url(#clip1_333_163)">
<path d="M354.167 49.7773C354.167 49.7773 347.135 50.2942 346.094 54.2402L343.854 53.9782C343.854 53.9782 342.72 51.6391 340.059 52.0726C337.397 52.5049 336.425 56.6698 338.252 60.1988C338.252 60.1988 329.8 65.7441 325.302 66.3112C325.302 66.3112 320.89 66.0062 320.826 70.0074C320.762 74.0085 321.127 75.301 321.127 75.301L317.603 76.8076L314.734 81.1665C314.734 81.1665 306.167 81.8833 302.886 74.9916C299.604 68.099 306.533 64.9607 306.533 64.9607L305.477 63.1209L301.021 59.5729C301.021 59.5729 289.456 65.3719 295.159 75.5246C300.862 85.6787 312.831 87.7149 312.831 87.7149L316.536 91.4983C316.536 91.4983 332.498 107.602 359.156 97.7912C385.815 87.9817 386.393 65.3628 386.393 65.3628C386.393 65.3628 388.555 52.3803 380.049 40.9356L375.815 45.3996L378.142 47.8471C373.806 42.6919 368.094 46.012 368.094 46.012L370.61 44.8611C368.669 39.4388 365.067 38.2764 365.067 38.2764C365.067 38.2764 364.251 42.3381 362.921 45.765C361.562 49.2675 362.317 49.5128 362.317 49.5128L361.2 49.3915L353.328 21.6673C352.55 18.9361 349.62 17.8182 347.112 18.4959C345.27 18.9928 342.129 20.7022 343.159 24.2391C343.159 24.2391 343.829 27.6487 348.587 27.4026L354.167 49.7773Z" fill="#5CB6F3"/>
<mask id="mask0_333_163" style="mask-type:alpha" maskUnits="userSpaceOnUse" x="298" y="62" width="18" height="25">
<path d="M309.544 62.3894L298.228 65.939L304.644 86.3932L315.96 82.8436L309.544 62.3894Z" fill="#D9D9D9"/>
</mask>
<g mask="url(#mask0_333_163)">
<path d="M315.032 82.1536C314.968 82.1736 314.903 82.1875 314.835 82.1942C311.015 82.5989 304.428 81.124 301.936 75.4056C301.931 75.395 301.927 75.3845 301.922 75.3728C300.908 72.8112 300.871 70.4553 301.81 68.372C303.393 64.8592 307.188 63.4812 307.349 63.4242C307.884 63.2352 308.469 63.5168 308.658 64.0539C308.848 64.5898 308.571 65.1775 308.039 65.3671C308.008 65.3781 304.887 66.53 303.673 69.2414C302.98 70.7888 303.029 72.5912 303.822 74.6002C304.965 77.2086 307.126 78.5584 308.74 79.232C310.396 79.9231 312.346 80.2694 314.062 80.1869C315.59 77.175 316.803 76.1276 316.943 76.0117C317.103 75.8818 317.299 75.8019 317.505 75.7851C318.577 75.6918 319.961 75.2606 320.226 74.7921C320.353 74.5477 320.117 73.536 319.977 72.9316C319.662 71.5821 319.27 69.9016 319.959 68.4884C320.446 67.4933 321.777 65.1356 323.643 64.7459C325.737 64.3068 327.843 65.6566 329.703 66.8485C330.751 67.5202 331.741 68.1558 332.522 68.3506C333.072 68.4876 333.41 69.0461 333.274 69.5989C333.14 70.1513 332.585 70.4875 332.035 70.3505C330.927 70.0746 329.798 69.3512 328.605 68.5854C327.001 67.5578 325.345 66.4961 324.068 66.7636C323.429 66.8977 322.493 67.9831 321.801 69.4014C321.434 70.1544 321.72 71.3841 321.973 72.4675C322.263 73.7106 322.536 74.8847 322.008 75.8169C321.207 77.2323 319.023 77.6699 318.057 77.7977C317.676 78.207 316.748 79.335 315.647 81.6218C315.523 81.8799 315.299 82.0699 315.032 82.1536Z" fill="#C8F5FF"/>
</g>
<path d="M315.303 18.1784C315.303 18.1784 289.053 26.2318 296.14 48.2545C301.11 63.5245 308.591 64.4348 308.591 64.4348C308.591 64.4348 320.549 70.4539 336.493 61.6525C352.438 52.8519 347.796 37.4806 347.796 37.4806L343.842 26.5973C343.842 26.5973 334.434 13.8051 315.303 18.1784Z" fill="#5CB6F3"/>
<path d="M313.139 88.6976C312.99 88.7444 312.828 88.758 312.663 88.7299C312.155 88.6434 300.143 86.4904 294.267 76.0279C292.549 72.9701 292.118 69.9639 292.988 67.0947C294.63 61.6765 300.319 58.7703 300.561 58.6493C301.065 58.3954 301.682 58.6032 301.937 59.1119C302.191 59.621 301.988 60.2398 301.483 60.4928C301.43 60.5198 296.324 63.142 294.947 67.7118C294.252 70.0174 294.623 72.4773 296.051 75.0205C301.437 84.607 312.885 86.6779 312.999 86.6978C313.558 86.7937 313.934 87.3252 313.842 87.8858C313.776 88.2812 313.495 88.5859 313.139 88.6976Z" fill="#C8F5FF"/>
<path d="M355.538 100.072C338.786 105.327 323.228 101.007 311.664 87.8664C311.288 87.4393 311.327 86.7881 311.75 86.4121C312.173 86.0348 312.822 86.0761 313.198 86.5042C314.642 88.1439 319.036 93.1372 326.201 96.6085C335.125 100.931 345.014 101.368 355.569 97.8964C374.76 91.595 381.754 80.1276 384.241 71.6193C387.646 59.969 384.318 48.3405 379.672 42.1309C378.951 42.4578 377.637 43.359 376.77 45.7557C376.577 46.2894 375.988 46.5644 375.456 46.3684C374.923 46.1716 374.649 45.5799 374.842 45.0451C376.51 40.4358 379.759 39.9336 379.897 39.9142C380.254 39.8648 380.612 40.0077 380.838 40.2902C383.732 43.8893 385.909 48.8498 386.967 54.2568C388.145 60.2721 387.882 66.4788 386.209 72.2058C383.583 81.1883 376.247 93.2769 356.212 99.855C355.989 99.9293 355.763 100.001 355.538 100.072Z" fill="#C8F5FF"/>
<path d="M323.155 67.2132C323.099 67.231 323.039 67.2442 322.979 67.2526C317.105 68.0026 311.287 67.1463 306.594 64.842C301.754 62.4655 298.297 58.6296 296.857 54.0412L294.325 45.9685C294.155 45.4254 294.454 44.8466 294.994 44.6772C295.534 44.5079 296.11 44.8122 296.28 45.3552L298.813 53.4279C300.099 57.5288 303.1 60.8355 307.489 62.9907C311.826 65.121 317.233 65.9083 322.713 65.2071C323.274 65.1363 323.79 65.5352 323.862 66.0997C323.928 66.6027 323.62 67.0673 323.155 67.2132Z" fill="#6FECF6"/>
<path d="M355.159 49.528L353.17 50.0233L347.59 27.647L349.58 27.1529L355.159 49.528Z" fill="#C8F5FF"/>
<path d="M338.214 59.4675C337.935 59.3943 337.628 59.4347 337.372 59.6132C334.814 61.4001 331.628 62.9431 328.4 63.9558C327.826 64.1357 326.141 64.6485 325.618 64.7846C325.062 64.9295 324.743 65.4896 324.885 66.0401C325.029 66.5916 325.59 66.9221 326.138 66.7805C326.735 66.6251 328.529 66.076 329.017 65.9229C332.439 64.8495 335.823 63.2098 338.547 61.307C338.755 61.1621 338.887 60.953 338.946 60.7246C338.568 60.4142 338.311 59.9551 338.214 59.4675Z" fill="#6FECF6"/>
<mask id="mask1_333_163" style="mask-type:alpha" maskUnits="userSpaceOnUse" x="309" y="56" width="34" height="28">
<path d="M336.266 56.4723L309.257 64.9446L315.102 83.5798L342.112 75.1075L336.266 56.4723Z" fill="#D9D9D9"/>
</mask>
<g mask="url(#mask1_333_163)">
<path d="M315.049 82.1433C314.985 82.1634 314.919 82.1773 314.852 82.184C311.032 82.5887 304.445 81.1138 301.953 75.3952C301.948 75.3847 301.944 75.3743 301.939 75.3624C300.925 72.801 300.887 70.4449 301.827 68.3618C303.41 64.8488 307.205 63.471 307.366 63.414C307.901 63.2249 308.486 63.5064 308.675 64.0436C308.864 64.5796 308.588 65.1673 308.056 65.3568C308.025 65.3679 304.903 66.5197 303.69 69.2311C302.997 70.7785 303.046 72.5808 303.838 74.5898C304.982 77.1984 307.143 78.5481 308.757 79.2218C310.413 79.9127 312.363 80.2592 314.079 80.1765C315.607 77.1648 316.82 76.1173 316.96 76.0015C317.12 75.8715 317.316 75.7916 317.522 75.7748C318.594 75.6816 319.978 75.2503 320.243 74.7817C320.369 74.5374 320.134 73.5256 319.993 72.9214C319.678 71.5717 319.287 69.8913 319.976 68.4782C320.463 67.483 321.794 65.1254 323.659 64.7355C325.754 64.2965 327.86 65.6463 329.72 66.8382C330.768 67.51 331.758 68.1454 332.539 68.3403C333.089 68.4773 333.427 69.0357 333.291 69.5886C333.157 70.1409 332.602 70.4771 332.051 70.3402C330.944 70.0643 329.815 69.3409 328.621 68.5752C327.018 67.5475 325.361 66.4858 324.085 66.7533C323.446 66.8875 322.51 67.9729 321.818 69.3912C321.451 70.1442 321.737 71.3737 321.99 72.4572C322.28 73.7004 322.553 74.8744 322.025 75.8066C321.223 77.222 319.04 77.6597 318.074 77.7875C317.693 78.1968 316.765 79.3247 315.664 81.6116C315.54 81.8696 315.316 82.0596 315.049 82.1433Z" fill="#C8F5FF"/>
</g>
<path d="M359.29 54.7573C359.026 54.8403 358.73 54.8161 358.471 54.6662C357.979 54.3805 357.81 53.7508 358.092 53.2582C358.118 53.213 360.653 48.773 361.968 45.3855C363.249 42.0843 364.057 38.105 364.064 38.0654C364.122 37.7788 364.299 37.5306 364.55 37.3827C364.801 37.235 365.103 37.2029 365.38 37.2925C365.548 37.3463 369.489 38.6772 371.577 44.512C371.769 45.0483 371.493 45.6384 370.959 45.8284C370.427 46.018 369.839 45.74 369.647 45.2035C368.53 42.0781 366.855 40.5211 365.783 39.8012C365.429 41.3034 364.769 43.8422 363.879 46.14C362.507 49.6742 359.978 54.1032 359.87 54.291C359.737 54.5228 359.527 54.683 359.29 54.7573Z" fill="#C8F5FF"/>
<path d="M352.294 58.3239C352.389 61.9454 352.126 65.6088 351.177 69.1198C351.074 69.4232 350.946 69.8429 350.813 70.1306C350.13 71.6485 348.407 74.6272 350.547 75.6291C351.334 75.9827 352.234 76.1707 353.08 76.3291C355.869 76.8002 358.782 76.9271 361.597 76.5159C358.734 77.9998 355.042 78.3421 351.856 77.933C350.729 77.7563 349.58 77.532 348.678 76.7506C346.412 74.7427 347.806 71.4565 349.051 69.308C349.165 69.0914 349.301 68.7407 349.394 68.5109C350.564 65.1766 351.255 61.7536 352.294 58.3239Z" fill="#C8F5FF"/>
<path d="M359.453 68.1413C359.651 63.4483 359.827 56.1779 356.555 52.559C354.821 50.8918 352.2 51.0271 350.01 51.7857C348.897 52.1866 346.778 53.238 346.894 54.6088C347.077 56.7918 352.421 57.6785 354.266 58.2293C351.594 58.2222 346.048 58.2107 345.358 54.842C345.057 53.447 345.943 52.1791 346.923 51.3681C349.098 49.6242 352.014 48.8276 354.775 49.3836C356.747 49.7866 358.314 51.117 359.209 52.9104C361.492 57.3659 360.896 63.5228 359.453 68.1413Z" fill="#C8F5FF"/>
<path d="M367.286 46.1045C368.747 44.4875 371.013 43.8087 373.168 44.0336C375.337 44.2606 377.487 45.695 378.145 47.846C376.361 46.9397 374.836 46.2822 372.937 46.0818C371.06 45.8574 369.265 46.0298 367.286 46.1045Z" fill="#C8F5FF"/>
<path d="M329.05 73.8593C332.41 74.461 335.633 75.1122 339.006 75.3247C340.615 75.4588 342.334 75.515 343.818 74.7745C345.512 73.9401 346.484 72.1987 346.717 70.3665C346.995 68.0403 346.784 65.1953 344.736 63.746C344.349 63.4795 343.895 63.2445 343.421 63.2762C341.592 63.5949 340.482 65.7185 339.843 67.3739C339.569 68.1548 339.368 68.9777 339.174 69.8318L338.969 69.831C338.806 68.9613 338.744 68.0601 338.818 67.1506C338.992 65.2516 339.682 63.3555 341.215 62.0535C343.235 60.3489 345.666 61.1304 347.137 63.0593C348.579 64.9604 348.822 67.4767 348.25 69.6982C347.65 72.0152 346.196 74.1215 344.141 75.356C342.598 76.2732 340.818 76.9167 339.017 77.0446C337.221 77.1812 335.437 76.828 333.731 76.3177C332.044 75.7905 330.418 75.0792 328.968 74.0485L329.05 73.8593Z" fill="#C8F5FF"/>
<path d="M361.506 50.3735C361.498 50.3762 361.488 50.3792 361.48 50.3806C360.935 50.5354 360.368 50.2166 360.212 49.6688L352.339 21.9447C351.712 19.739 349.325 18.9624 347.38 19.4889C346.301 19.7795 344.931 20.4829 344.317 21.5829C343.935 22.2704 343.876 23.0447 344.141 23.9504C344.3 24.4969 343.994 25.0608 343.445 25.2263C342.901 25.3849 342.331 25.0695 342.171 24.5229C341.751 23.0775 341.872 21.7482 342.527 20.5712C343.691 18.4868 346.123 17.6921 346.841 17.4974C348.32 17.0984 349.945 17.2333 351.298 17.8665C352.796 18.57 353.866 19.8193 354.311 21.3847L362.184 49.11C362.337 49.648 362.034 50.2079 361.506 50.3735Z" fill="#C8F5FF"/>
<path d="M314.54 19.8194C301.352 23.9562 293.16 35.4113 296.279 45.3552C299.399 55.3005 312.666 60.0257 325.854 55.8888C339.041 51.7524 347.232 40.2962 344.112 30.3509C340.993 20.4069 327.727 15.6829 314.54 19.8194ZM326.471 57.8558C312.205 62.3306 297.784 56.9989 294.324 45.9685C290.864 34.9394 299.657 22.3259 313.922 17.8511C328.188 13.3763 342.609 18.7081 346.069 29.7372C349.529 40.7676 340.736 53.381 326.471 57.8558Z" fill="#6FECF6"/>
<path d="M344.911 55.1056L343.275 53.8568C347.017 48.8974 348.214 43.4169 346.648 38.4243L344.115 30.3516L346.072 29.738L348.604 37.8106C350.35 43.3765 349.003 49.6801 344.911 55.1056Z" fill="#6FECF6"/>
<path d="M304.197 54.4893L306.498 62.5574L302.312 55.2907" fill="#6FECF6"/>
<path d="M308.185 56.4943L310.485 64.5627L306.299 57.2961" fill="#6FECF6"/>
<path d="M312.978 58.0087L315.279 66.0767L311.091 58.8093" fill="#6FECF6"/>
<path d="M318.568 58.2286L320.458 66.1411L316.65 58.9523" fill="#6FECF6"/>
<path d="M324.289 57.4125L326.983 65.1793L322.452 58.3234" fill="#6FECF6"/>
<path d="M330.81 55.2564L333.322 62.8291L328.966 56.1499" fill="#6FECF6"/>
<path d="M343.565 44.7157L346.059 51.8369L341.742 45.6541" fill="#6FECF6"/>
<path d="M337.695 42.4548L335.861 41.5484C336.397 40.1963 336.595 38.8095 336.45 37.4253C336.14 34.4836 334.305 31.8583 331.282 30.0308C328.164 28.1465 324.182 27.3414 320.07 27.7637C315.824 28.1998 312.017 29.717 309.381 32.3375L307.457 31.4927C307.532 31.4188 307.947 30.9576 308.024 30.8858C311.013 28.0241 315.202 26.1906 319.854 25.7132C324.405 25.245 328.838 26.1519 332.334 28.2644C335.924 30.4348 338.11 33.6145 338.49 37.216C338.67 38.9359 338.355 40.7902 337.695 42.4548Z" fill="#6FECF6"/>
<path d="M327.039 51.3602C325.633 51.8015 324.156 52.1064 322.644 52.2619C313.137 53.2387 304.778 48.0785 304.009 40.7591C303.805 38.8205 304.136 36.899 304.993 35.0474L306.934 35.6799C306.235 37.1891 305.885 38.9879 306.048 40.5497C306.699 46.7383 314.047 51.0732 322.429 50.2113C326.229 49.8218 329.76 48.3993 332.37 46.2107L334.283 47.1864C332.415 48.7544 329.539 50.576 327.039 51.3602Z" fill="#6FECF6"/>
<path d="M321.861 35.3522L320.035 34.7344L327.467 21.9937L329.221 23.0672L321.861 35.3522Z" fill="#6FECF6"/>
<path d="M310.455 54.1652L308.701 53.0905L316.33 40.4778L318.218 41.2927L310.455 54.1652Z" fill="#6FECF6"/>
<path d="M326.431 37.2459L324.543 36.431L332.115 23.7951L333.868 24.8691L326.431 37.2459Z" fill="#6FECF6"/>
<path d="M315.097 55.9685L313.343 54.8948L320.687 42.7142L322.647 43.4989L315.097 55.9685Z" fill="#6FECF6"/>
<path d="M307.011 46.2255C306.778 46.2987 306.519 46.2884 306.278 46.1779L298.064 42.387C297.687 42.2129 297.45 41.8275 297.465 41.4123C297.478 40.9961 297.74 40.6296 298.127 40.4842L304.412 38.126C304.946 37.9268 305.534 38.1981 305.733 38.7321C305.933 39.2647 305.665 39.859 305.136 40.057L301.159 41.5504L307.129 44.3057C307.644 44.5443 307.871 45.156 307.637 45.6731C307.511 45.9492 307.278 46.1418 307.011 46.2255Z" fill="#6FECF6"/>
<path d="M311.327 30.5674C310.81 30.7296 310.25 30.4573 310.058 29.941L307.9 24.128C307.756 23.7401 307.857 23.3044 308.155 23.0209C308.453 22.7374 308.892 22.661 309.27 22.8268L317.17 26.3053C317.69 26.5343 317.927 27.1417 317.702 27.6627C317.476 28.1841 316.871 28.4215 316.352 28.1937L310.667 25.6892L311.979 29.2252C312.177 29.7597 311.908 30.3532 311.378 30.55C311.36 30.5568 311.343 30.5621 311.327 30.5674Z" fill="#6FECF6"/>
<path d="M339.283 61.4807C337.258 59.372 334.54 54.9574 337.067 52.3058C338.388 51.0461 340.771 50.6641 342.448 51.3595C345.919 52.9652 345.389 57.9375 344.012 60.7945C343.777 61.2723 343.497 61.7413 343.131 62.1233C343.285 61.6206 343.353 61.1142 343.418 60.6129C343.621 58.5136 343.731 55.5437 342.463 53.8553C341.972 53.2666 341.344 53.0622 340.572 53.0588C339.831 53.0678 338.896 53.2162 338.338 53.6797C336.593 55.1652 338.561 59.633 339.283 61.4807Z" fill="#C8F5FF"/>
<path d="M364.29 50.5574C364.29 50.5574 366.292 51.5132 367.975 53.4767L370.088 51.2194C370.088 51.2194 367.291 48.731 364.29 50.5574Z" fill="#C8F5FF"/>
<path d="M377.665 53.7847C377.665 53.7847 375.455 53.6688 373.053 54.5924L372.248 51.592C372.248 51.592 375.877 50.7394 377.665 53.7847Z" fill="#C8F5FF"/>
<path d="M370.8 58.165L371.638 57.2124C372.231 56.5388 371.875 55.4694 370.995 55.2882L369.754 55.0318C368.874 54.8494 368.131 55.6921 368.418 56.5469L368.821 57.7559C369.107 58.6112 370.206 58.8391 370.8 58.165Z" fill="#C8F5FF"/>
<path d="M369.342 57.7652C368.102 58.5621 366.306 58.7428 365.289 57.4645C364.942 57.0618 364.676 56.57 364.475 56.0523C364.579 56.5978 364.749 57.141 365.039 57.6439C365.98 59.3936 368.276 59.5533 369.944 58.8491C370.763 58.4555 370.105 57.2732 369.342 57.7652Z" fill="#C8F5FF"/>
<path d="M370.312 57.9654C371.143 59.19 372.727 60.0686 374.155 59.2963C374.631 59.062 375.067 58.7168 375.451 58.3199C375.145 58.7812 374.777 59.2128 374.317 59.5605C372.774 60.7978 370.601 60.0325 369.338 58.7226C368.737 58.0354 369.798 57.2082 370.312 57.9654Z" fill="#C8F5FF"/>
<path d="M339.178 75.5575C340.334 77.4847 341.01 79.7013 340.934 81.9629C340.83 85.7546 338.08 88.5055 334.82 89.9625C332.25 91.1673 329.423 91.7671 326.646 92.1838C329.617 91.4831 332.547 90.5692 335.14 88.9521C339.637 86.1195 340.624 81.8555 337.875 77.2937C337.767 77.1137 337.622 76.8976 337.505 76.7431L339.178 75.5575Z" fill="#C8F5FF"/>
<path d="M320.799 68.8933C321.468 67.0333 323.096 64.6078 325.086 64.7317C325.435 64.7366 325.554 64.8174 325.807 64.9202C326.257 65.135 326.668 65.3927 327.083 65.6385C328.614 66.5975 330.177 67.5143 331.889 68.0669C333.529 68.6301 335.074 69.1938 336.806 69.2618C337.388 69.2904 337.988 69.267 338.632 69.218C338.728 69.205 338.792 69.3417 338.715 69.4059C336.72 71.2379 333.399 71.1663 331.088 69.9792C329.106 68.9504 327.35 67.5546 325.604 66.1954C325.441 66.0753 325.28 65.9582 325.12 65.8705C325.088 65.8487 325.042 65.843 325.116 65.8413C323.756 65.6006 322.607 66.7835 321.81 67.7818C321.513 68.1619 321.236 68.5648 320.982 68.9846C320.926 69.0914 320.749 69.0073 320.799 68.8933Z" fill="#C8F5FF"/>
<path d="M350.404 27.1899C347.952 28.399 344.402 28.2488 342.825 25.6926C342.157 24.6544 341.851 23.374 342.011 22.1476C342.23 20.2799 343.829 18.7459 345.412 18.0912C347.477 17.1206 350.144 17.2419 351.893 18.8127C352.718 19.541 353.261 20.5841 353.331 21.6623C352.851 20.7896 352.177 20.0762 351.315 19.641C350.143 19.04 348.716 18.9524 347.471 19.3427C345.915 19.8573 344.109 20.9475 343.975 22.7448C343.853 26.4582 347.31 27.2594 350.404 27.1899Z" fill="#C8F5FF"/>
<path d="M315.666 89.3732C314.983 89.7549 314.144 89.6848 313.474 89.3766C311.5 88.4639 311.098 85.7729 312.72 84.3391C312.762 84.2982 312.835 84.3177 312.85 84.3741L313.052 85.0762C313.541 86.6477 314.327 88.2692 315.746 89.1835C315.801 89.2127 315.8 89.2993 315.745 89.3286" fill="#C8F5FF"/>
</g>
<g clip-path="url(#clip2_333_163)">
<path d="M79.7479 49.7375C79.7479 49.7375 86.7799 50.2544 87.8204 54.2004L90.0607 53.9384C90.0607 53.9384 91.1945 51.5993 93.8559 52.0328C96.5175 52.4651 97.4894 56.63 95.6627 60.159C95.6627 60.159 104.115 65.7043 108.613 66.2714C108.613 66.2714 113.025 65.9664 113.089 69.9676C113.153 73.9687 112.787 75.2612 112.787 75.2612L116.311 76.7678L119.181 81.1267C119.181 81.1267 127.748 81.8435 131.029 74.9518C134.311 68.0592 127.381 64.9209 127.381 64.9209L128.438 63.0811L132.894 59.5331C132.894 59.5331 144.459 65.3321 138.756 75.4848C133.053 85.6389 121.084 87.6751 121.084 87.6751L117.378 91.4585C117.378 91.4585 101.417 107.562 74.7589 97.7514C48.0996 87.9419 47.5213 65.323 47.5213 65.323C47.5213 65.323 45.3598 52.3405 53.8655 40.8958L58.0995 45.3599L55.7733 47.8073C60.1085 42.6521 65.8213 45.9722 65.8213 45.9722L63.3044 44.8213C65.2457 39.399 68.8474 38.2366 68.8474 38.2366C68.8474 38.2366 69.6639 42.2983 70.994 45.7252C72.3532 49.2277 71.5976 49.473 71.5976 49.473L72.7146 49.3517L80.5869 21.6276C81.3645 18.8963 84.2945 17.7784 86.8026 18.4562C88.645 18.953 91.7858 20.6624 90.7555 24.1993C90.7555 24.1993 90.0862 27.6089 85.3282 27.3628L79.7479 49.7375Z" fill="#5CB6F3"/>
<mask id="mask2_333_163" style="mask-type:alpha" maskUnits="userSpaceOnUse" x="117" y="62" width="19" height="25">
<path d="M124.371 62.3479L135.687 65.8975L129.271 86.3517L117.955 82.8021L124.371 62.3479Z" fill="#D9D9D9"/>
</mask>
<g mask="url(#mask2_333_163)">
<path d="M118.883 82.1121C118.947 82.1321 119.012 82.146 119.08 82.1527C122.899 82.5574 129.486 81.0825 131.979 75.3641C131.983 75.3535 131.988 75.343 131.993 75.3313C133.007 72.7697 133.044 70.4138 132.105 68.3305C130.522 64.8177 126.726 63.4397 126.566 63.3827C126.031 63.1937 125.446 63.4753 125.256 64.0124C125.067 64.5483 125.344 65.136 125.876 65.3256C125.907 65.3366 129.028 66.4884 130.242 69.1999C130.935 70.7473 130.886 72.5497 130.093 74.5587C128.95 77.1671 126.789 78.5169 125.175 79.1905C123.518 79.8816 121.569 80.2279 119.852 80.1454C118.325 77.1335 117.112 76.0861 116.971 75.9702C116.811 75.8403 116.616 75.7604 116.41 75.7436C115.338 75.6503 113.954 75.219 113.689 74.7506C113.562 74.5061 113.798 73.4945 113.938 72.8901C114.253 71.5406 114.644 69.8601 113.956 68.4469C113.469 67.4518 112.138 65.0941 110.272 64.7044C108.178 64.2653 106.072 65.6151 104.212 66.807C103.164 67.4787 102.174 68.1143 101.393 68.309C100.843 68.4461 100.505 69.0046 100.641 69.5574C100.775 70.1098 101.33 70.446 101.88 70.3089C102.987 70.0331 104.117 69.3097 105.31 68.5439C106.914 67.5163 108.57 66.4546 109.847 66.7221C110.486 66.8562 111.421 67.9416 112.114 69.3599C112.481 70.1129 112.194 71.3426 111.942 72.426C111.652 73.6691 111.379 74.8432 111.907 75.7754C112.708 77.1908 114.891 77.6284 115.858 77.7562C116.239 78.1655 117.166 79.2935 118.268 81.5803C118.392 81.8384 118.616 82.0284 118.883 82.1121Z" fill="#C8F5FF"/>
</g>
<path d="M118.612 18.1384C118.612 18.1384 144.862 26.1917 137.774 48.2144C132.805 63.4844 125.324 64.3947 125.324 64.3947C125.324 64.3947 113.365 70.4138 97.422 61.6125C81.477 52.8119 86.1191 37.4405 86.1191 37.4405L90.0731 26.5573C90.0731 26.5573 99.481 13.7651 118.612 18.1384Z" fill="#5CB6F3"/>
<path d="M120.776 88.658C120.925 88.7048 121.087 88.7185 121.251 88.6903C121.759 88.6038 133.772 86.4509 139.648 75.9883C141.366 72.9305 141.797 69.9243 140.927 67.0551C139.285 61.637 133.596 58.7308 133.354 58.6097C132.85 58.3559 132.232 58.5636 131.978 59.0724C131.724 59.5815 131.926 60.2003 132.432 60.4533C132.484 60.4803 137.591 63.1025 138.968 67.6722C139.663 69.9778 139.291 72.4378 137.864 74.981C132.478 84.5675 121.03 86.6384 120.916 86.6583C120.357 86.7542 119.98 87.2857 120.073 87.8462C120.139 88.2417 120.42 88.5464 120.776 88.658Z" fill="#C8F5FF"/>
<path d="M78.3764 100.032C95.1285 105.287 110.687 100.967 122.251 87.8263C122.626 87.3993 122.588 86.7481 122.164 86.3721C121.741 85.9948 121.093 86.036 120.717 86.4641C119.273 88.1039 114.879 93.0971 107.713 96.5685C98.7894 100.891 88.9002 101.328 78.3456 97.8564C59.1548 91.5549 52.1609 80.0876 49.6737 71.5792C46.2688 59.929 49.5969 48.3005 54.243 42.0909C54.9632 42.4177 56.2773 43.319 57.1447 45.7157C57.3379 46.2494 57.9265 46.5244 58.4581 46.3284C58.9914 46.1315 59.2655 45.5398 59.0727 45.0051C57.4042 40.3958 54.1556 39.8936 54.0177 39.8742C53.6608 39.8247 53.303 39.9676 53.0769 40.2501C50.1823 43.8492 48.0054 48.8098 46.9473 54.2168C45.7697 60.2321 46.0324 66.4387 47.7054 72.1657C50.3318 81.1482 57.6671 93.2369 77.7021 99.815C77.9259 99.8892 78.1515 99.9613 78.3764 100.032Z" fill="#C8F5FF"/>
<path d="M110.759 67.1737C110.816 67.1914 110.875 67.2046 110.936 67.213C116.809 67.963 122.627 67.1067 127.32 64.8025C132.16 62.4259 135.618 58.5901 137.057 54.0016L139.589 45.929C139.76 45.3859 139.461 44.807 138.921 44.6377C138.381 44.4683 137.805 44.7726 137.634 45.3157L135.102 53.3883C133.816 57.4893 130.814 60.7959 126.426 62.9512C122.089 65.0815 116.682 65.8688 111.201 65.1675C110.641 65.0968 110.125 65.4956 110.052 66.0601C109.987 66.5632 110.294 67.0277 110.759 67.1737Z" fill="#6FECF6"/>
<path d="M78.7557 49.4879L80.7452 49.9832L86.3246 27.607L84.3347 27.1129L78.7557 49.4879Z" fill="#C8F5FF"/>
<path d="M95.7005 59.4279C95.9798 59.3547 96.2867 59.3952 96.5423 59.5736C99.1001 61.3605 102.286 62.9035 105.515 63.9162C106.088 64.0962 107.774 64.6089 108.297 64.7451C108.852 64.89 109.172 65.45 109.029 66.0006C108.885 66.5521 108.325 66.8825 107.776 66.741C107.179 66.5855 105.386 66.0365 104.898 65.8833C101.476 64.8099 98.0913 63.1702 95.3678 61.2674C95.1598 61.1225 95.0272 60.9135 94.9681 60.685C95.3467 60.3746 95.6031 59.9155 95.7005 59.4279Z" fill="#6FECF6"/>
<mask id="mask3_333_163" style="mask-type:alpha" maskUnits="userSpaceOnUse" x="91" y="56" width="34" height="28">
<path d="M97.6486 56.431L124.658 64.9033L118.812 83.5385L91.8031 75.0662L97.6486 56.431Z" fill="#D9D9D9"/>
</mask>
<g mask="url(#mask3_333_163)">
<path d="M118.866 82.1043C118.93 82.1243 118.995 82.1382 119.063 82.1449C122.882 82.5496 129.469 81.0747 131.962 75.3561C131.966 75.3457 131.971 75.3352 131.976 75.3234C132.989 72.7619 133.027 70.4058 132.088 68.3227C130.505 64.8098 126.709 63.4319 126.549 63.3749C126.014 63.1858 125.429 63.4674 125.239 64.0046C125.05 64.5405 125.327 65.1282 125.859 65.3178C125.89 65.3288 129.011 66.4806 130.225 69.1921C130.918 70.7395 130.869 72.5418 130.076 74.5507C128.933 77.1593 126.771 78.5091 125.158 79.1827C123.501 79.8736 121.551 80.2201 119.835 80.1375C118.308 77.1257 117.095 76.0783 116.954 75.9624C116.794 75.8324 116.599 75.7525 116.393 75.7358C115.32 75.6425 113.937 75.2112 113.672 74.7427C113.545 74.4984 113.781 73.4866 113.921 72.8823C114.236 71.5327 114.627 69.8523 113.939 68.4391C113.452 67.444 112.121 65.0863 110.255 64.6964C108.161 64.2575 106.055 65.6073 104.195 66.7992C103.147 67.4709 102.157 68.1063 101.376 68.3013C100.826 68.4382 100.488 68.9967 100.624 69.5496C100.758 70.1019 101.313 70.4381 101.863 70.3011C102.97 70.0252 104.099 69.3019 105.293 68.5361C106.897 67.5085 108.553 66.4468 109.83 66.7143C110.469 66.8484 111.404 67.9338 112.097 69.3521C112.464 70.1051 112.177 71.3346 111.925 72.4182C111.635 73.6613 111.362 74.8354 111.89 75.7676C112.691 77.183 114.874 77.6206 115.841 77.7484C116.222 78.1577 117.149 79.2857 118.251 81.5725C118.374 81.8305 118.599 82.0206 118.866 82.1043Z" fill="#C8F5FF"/>
</g>
<path d="M74.6245 54.7178C74.889 54.8007 75.1845 54.7766 75.4441 54.6267C75.9353 54.341 76.1051 53.7112 75.8225 53.2187C75.797 53.1735 73.262 48.7334 71.9472 45.3459C70.6661 42.0447 69.8581 38.0654 69.8506 38.0259C69.7926 37.7392 69.6155 37.4911 69.3648 37.3432C69.114 37.1955 68.8123 37.1633 68.5346 37.2529C68.3672 37.3067 64.4259 38.6376 62.3382 44.4725C62.1461 45.0087 62.4219 45.5989 62.9554 45.7888C63.4876 45.9784 64.0754 45.7004 64.2674 45.164C65.3852 42.0386 67.0596 40.4816 68.1321 39.7616C68.4862 41.2639 69.1454 43.8026 70.0358 46.1004C71.4076 49.6346 73.9369 54.0636 74.0444 54.2515C74.1777 54.4832 74.3876 54.6434 74.6245 54.7178Z" fill="#C8F5FF"/>
<path d="M81.6208 58.2841C81.5255 61.9056 81.7882 65.5691 82.738 69.08C82.841 69.3834 82.9681 69.8031 83.1012 70.0908C83.7846 71.6087 85.5075 74.5874 83.368 75.5893C82.5809 75.9429 81.6806 76.1309 80.8345 76.2893C78.0452 76.7604 75.1328 76.8873 72.3179 76.4761C75.1807 77.96 78.873 78.3023 82.0589 77.8932C83.1855 77.7165 84.3348 77.4923 85.2363 76.7108C87.5025 74.7029 86.1084 71.4167 84.8634 69.2682C84.7491 69.0516 84.6134 68.7009 84.5204 68.4711C83.3502 65.1368 82.6594 61.7138 81.6208 58.2841Z" fill="#C8F5FF"/>
<path d="M74.4624 68.1013C74.2638 63.4083 74.0878 56.1378 77.3599 52.519C79.094 50.8518 81.7154 50.987 83.905 51.7456C85.018 52.1466 87.1369 53.198 87.0212 54.5688C86.8384 56.7517 81.4938 57.6384 79.649 58.1892C82.3206 58.1821 87.8672 58.1707 88.5568 54.802C88.8583 53.407 87.9723 52.1391 86.9918 51.3281C84.8168 49.5841 81.9008 48.7876 79.1405 49.3436C77.1676 49.7466 75.6013 51.0769 74.7059 52.8704C72.4234 57.3259 73.0186 63.4828 74.4624 68.1013Z" fill="#C8F5FF"/>
<path d="M66.629 46.0649C65.1683 44.4479 62.9022 43.7691 60.7475 43.994C58.5777 44.221 56.428 45.6554 55.7705 47.8065C57.5538 46.9001 59.0795 46.2427 60.978 46.0422C62.8552 45.8178 64.6501 45.9902 66.629 46.0649Z" fill="#C8F5FF"/>
<path d="M104.865 73.8193C101.505 74.421 98.2815 75.0722 94.9091 75.2846C93.2993 75.4188 91.5805 75.4749 90.0971 74.7345C88.4029 73.9001 87.4304 72.1587 87.1981 70.3265C86.92 68.0003 87.131 65.1552 89.1783 63.706C89.5657 63.4394 90.0198 63.2045 90.4933 63.2361C92.3228 63.5549 93.4332 65.6784 94.0722 67.3339C94.3462 68.1147 94.5464 68.9377 94.7408 69.7918L94.9457 69.791C95.1088 68.9213 95.1711 68.0201 95.0971 67.1105C94.9228 65.2115 94.2324 63.3155 92.6994 62.0134C90.6799 60.3088 88.2488 61.0903 86.7774 63.0193C85.3359 64.9204 85.0933 67.4367 85.6644 69.6581C86.2649 71.9751 87.7186 74.0815 89.7734 75.316C91.3163 76.2332 93.0968 76.8767 94.8978 77.0045C96.6935 77.1411 98.4776 76.7879 100.184 76.2776C101.871 75.7504 103.497 75.0392 104.947 74.0085L104.865 73.8193Z" fill="#C8F5FF"/>
<path d="M72.4086 50.3335C72.417 50.3361 72.4266 50.3391 72.4355 50.3406C72.9798 50.4954 73.5474 50.1765 73.7034 49.6288L81.5757 21.9047C82.2029 19.699 84.59 18.9223 86.5354 19.4489C87.6144 19.7395 88.984 20.4428 89.5977 21.5429C89.9805 22.2303 90.0387 23.0047 89.7744 23.9103C89.6148 24.4569 89.9213 25.0208 90.4703 25.1863C91.0136 25.3448 91.584 25.0295 91.7436 24.4829C92.164 23.0375 92.0434 21.7081 91.3878 20.5311C90.2243 18.4468 87.7924 17.652 87.0743 17.4573C85.5948 17.0583 83.9703 17.1932 82.6172 17.8265C81.1194 18.53 80.0486 19.7793 79.6039 21.3447L71.7311 49.07C71.5783 49.608 71.8808 50.1679 72.4086 50.3335Z" fill="#C8F5FF"/>
<path d="M119.375 19.7793C132.563 23.9162 140.755 35.3712 137.635 45.3152C134.516 55.2605 121.249 59.9857 108.061 55.8488C94.8737 51.7123 86.6824 40.2561 89.8021 30.3108C92.9213 20.3668 106.188 15.6428 119.375 19.7793ZM107.444 57.8158C121.709 62.2906 136.131 56.9589 139.591 45.9285C143.05 34.8994 134.258 22.2859 119.992 17.8111C105.727 13.3363 91.3054 18.6681 87.8458 29.6972C84.3858 40.7276 93.1782 53.341 107.444 57.8158Z" fill="#6FECF6"/>
<path d="M89.0042 55.0655L90.64 53.8168C86.8982 48.8574 85.7012 43.3768 87.2673 38.3842L89.7995 30.3116L87.8432 29.6979L85.311 37.7706C83.5651 43.3365 84.912 49.6401 89.0042 55.0655Z" fill="#6FECF6"/>
<path d="M129.718 54.4493L127.417 62.5174L131.603 55.2507" fill="#6FECF6"/>
<path d="M125.729 56.4548L123.429 64.5231L127.616 57.2565" fill="#6FECF6"/>
<path d="M120.937 57.9685L118.636 66.0364L122.824 58.769" fill="#6FECF6"/>
<path d="M115.347 58.1888L113.457 66.1013L117.265 58.9125" fill="#6FECF6"/>
<path d="M109.626 57.3729L106.932 65.1397L111.462 58.2838" fill="#6FECF6"/>
<path d="M103.104 55.2164L100.592 62.7891L104.949 56.1099" fill="#6FECF6"/>
<path d="M90.3504 44.6757L87.8565 51.7969L92.1731 45.6141" fill="#6FECF6"/>
<path d="M96.2199 42.4147L98.0534 41.5083C97.5174 40.1563 97.3197 38.7695 97.4647 37.3853C97.7746 34.4435 99.6098 31.8182 102.633 29.9908C105.751 28.1065 109.733 27.3014 113.845 27.7237C118.091 28.1598 121.898 29.6769 124.534 32.2975L126.457 31.4526C126.383 31.3787 125.968 30.9176 125.891 30.8458C122.902 27.984 118.713 26.1506 114.061 25.6731C109.51 25.205 105.077 26.1119 101.581 28.2244C97.9907 30.3948 95.8047 33.5744 95.4251 37.176C95.2449 38.8959 95.5599 40.7502 96.2199 42.4147Z" fill="#6FECF6"/>
<path d="M106.875 51.3206C108.282 51.7619 109.758 52.0668 111.271 52.2223C120.777 53.1992 129.137 48.0389 129.906 40.7195C130.11 38.781 129.779 36.8595 128.922 35.0079L126.981 35.6403C127.679 37.1495 128.03 38.9483 127.867 40.5101C127.216 46.6988 119.868 51.0336 111.486 50.1718C107.686 49.7822 104.155 48.3598 101.545 46.1712L99.6316 47.1469C101.5 48.7149 104.376 50.5365 106.875 51.3206Z" fill="#6FECF6"/>
<path d="M112.053 35.3121L113.879 34.6943L106.448 21.9536L104.694 23.0272L112.053 35.3121Z" fill="#6FECF6"/>
<path d="M123.459 54.125L125.213 53.0502L117.584 40.4375L115.696 41.2524L123.459 54.125Z" fill="#6FECF6"/>
<path d="M107.483 37.2058L109.371 36.391L101.8 23.7551L100.047 24.829L107.483 37.2058Z" fill="#6FECF6"/>
<path d="M118.818 55.9284L120.572 54.8548L113.227 42.6742L111.268 43.4588L118.818 55.9284Z" fill="#6FECF6"/>
<path d="M126.904 46.1857C127.137 46.2589 127.396 46.2486 127.637 46.1381L135.851 42.3472C136.228 42.1731 136.465 41.7877 136.45 41.3725C136.437 40.9563 136.175 40.5898 135.788 40.4444L129.503 38.0862C128.969 37.887 128.381 38.1583 128.182 38.6923C127.982 39.2249 128.25 39.8192 128.779 40.0172L132.756 41.5106L126.786 44.2659C126.271 44.5045 126.044 45.1162 126.278 45.6333C126.404 45.9094 126.637 46.102 126.904 46.1857Z" fill="#6FECF6"/>
<path d="M122.588 30.5279C123.105 30.69 123.665 30.4177 123.857 29.9014L126.015 24.0885C126.159 23.7005 126.058 23.2649 125.76 22.9814C125.462 22.6979 125.023 22.6215 124.645 22.7872L116.744 26.2658C116.225 26.4948 115.988 27.1022 116.213 27.6232C116.439 28.1445 117.043 28.3819 117.563 28.1541L123.248 25.6496L121.935 29.1857C121.737 29.7202 122.007 30.3136 122.537 30.5104C122.555 30.5173 122.571 30.5226 122.588 30.5279Z" fill="#6FECF6"/>
<path d="M94.6314 61.4406C96.6559 59.3319 99.3746 54.9174 96.8476 52.2658C95.5259 51.0061 93.1429 50.624 91.4667 51.3194C87.9952 52.9251 88.525 57.8975 89.9019 60.7544C90.1376 61.2322 90.417 61.7013 90.7833 62.0832C90.6292 61.5806 90.5609 61.0741 90.4962 60.5729C90.2937 58.4736 90.1832 55.5037 91.4512 53.8152C91.9422 53.2266 92.5702 53.0222 93.3427 53.0187C94.0834 53.0278 95.0182 53.1761 95.5766 53.6397C97.3216 55.1252 95.3536 59.593 94.6314 61.4406Z" fill="#C8F5FF"/>
<path d="M69.6246 50.5176C69.6246 50.5176 67.6224 51.4735 65.9394 53.437L63.8263 51.1796C63.8263 51.1796 66.6237 48.6912 69.6246 50.5176Z" fill="#C8F5FF"/>
<path d="M56.2498 53.7446C56.2498 53.7446 58.4601 53.6287 60.8621 54.5523L61.6671 51.5519C61.6671 51.5519 58.0384 50.6994 56.2498 53.7446Z" fill="#C8F5FF"/>
<path d="M63.1155 58.125L62.2772 57.1724C61.6841 56.4988 62.0408 55.4294 62.9203 55.2481L64.1617 54.9917C65.0417 54.8094 65.7839 55.6521 65.4972 56.5069L65.0942 57.7158C64.8087 58.5711 63.7097 58.7991 63.1155 58.125Z" fill="#C8F5FF"/>
<path d="M64.5734 57.7251C65.8131 58.5221 67.6094 58.7028 68.626 57.4245C68.9728 57.0217 69.2393 56.53 69.44 56.0122C69.3363 56.5577 69.1659 57.1009 68.876 57.6038C67.9348 59.3536 65.6395 59.5133 63.9706 58.809C63.1522 58.4155 63.8097 57.2331 64.5734 57.7251Z" fill="#C8F5FF"/>
<path d="M63.603 57.9254C62.7711 59.15 61.1879 60.0286 59.7595 59.2563C59.2836 59.022 58.8478 58.6767 58.4637 58.2798C58.7694 58.7412 59.1373 59.1728 59.5974 59.5204C61.1401 60.7578 63.3138 59.9925 64.5766 58.6826C65.1777 57.9953 64.1164 57.1682 63.603 57.9254Z" fill="#C8F5FF"/>
<path d="M94.7364 75.5177C93.5811 77.4449 92.9043 79.6615 92.9807 81.9231C93.0843 85.7148 95.835 88.4657 99.0945 89.9227C101.664 91.1275 104.492 91.7273 107.269 92.144C104.298 91.4433 101.367 90.5294 98.7749 88.9123C94.2774 86.0797 93.2905 81.8157 96.0396 77.2539C96.1475 77.0739 96.2931 76.8578 96.4103 76.7033L94.7364 75.5177Z" fill="#C8F5FF"/>
<path d="M113.115 68.8533C112.447 66.9932 110.818 64.5677 108.829 64.6917C108.48 64.6966 108.361 64.7774 108.108 64.8802C107.658 65.095 107.247 65.3527 106.831 65.5985C105.301 66.5575 103.737 67.4743 102.026 68.0269C100.385 68.5901 98.8404 69.1537 97.1087 69.2218C96.5265 69.2504 95.9263 69.2269 95.2827 69.1779C95.1864 69.165 95.1224 69.3017 95.1999 69.3659C97.1941 71.1978 100.516 71.1262 102.827 69.9392C104.808 68.9104 106.564 67.5146 108.31 66.1554C108.473 66.0352 108.634 65.9182 108.795 65.8305C108.827 65.8087 108.872 65.8029 108.799 65.8012C110.158 65.5605 111.307 66.7435 112.105 67.7417C112.402 68.1218 112.678 68.5247 112.932 68.9445C112.988 69.0514 113.165 68.9673 113.115 68.8533Z" fill="#C8F5FF"/>
<path d="M83.5107 27.1498C85.9632 28.3589 89.5128 28.2088 91.0898 25.6526C91.7576 24.6144 92.0643 23.3339 91.9034 22.1075C91.6849 20.2398 90.086 18.7058 88.503 18.0512C86.4381 17.0805 83.7705 17.2018 82.0218 18.7727C81.1963 19.501 80.6538 20.5441 80.5838 21.6222C81.0636 20.7496 81.7376 20.0362 82.5994 19.6009C83.7717 19 85.1993 18.9123 86.4437 19.3027C87.9993 19.8172 89.8061 20.9075 89.9397 22.7047C90.0613 26.4182 86.6046 27.2194 83.5107 27.1498Z" fill="#C8F5FF"/>
<path d="M118.249 89.3336C118.932 89.7154 119.771 89.6453 120.441 89.3371C122.415 88.4243 122.817 85.7333 121.195 84.2996C121.153 84.2586 121.08 84.2782 121.065 84.3345L120.863 85.0367C120.374 86.6081 119.588 88.2297 118.169 89.144C118.114 89.1732 118.115 89.2597 118.17 89.289" fill="#C8F5FF"/>
</g>
<defs>
<clipPath id="clip0_333_163">
<rect x="45.5298" y="11.5605" width="346.524" height="93.8239" rx="46.9119" fill="white"/>
</clipPath>
<clipPath id="clip1_333_163">
<rect width="96.005" height="90.9074" fill="white" transform="translate(279.102 28.7739) rotate(-17.4156)"/>
</clipPath>
<clipPath id="clip2_333_163">
<rect width="96.005" height="90.9074" fill="white" transform="matrix(-0.954159 -0.2993 -0.2993 0.954159 154.812 28.7344)"/>
</clipPath>
</defs>
</svg>
