<svg width="785" height="165" viewBox="0 0 785 165" fill="none" xmlns="http://www.w3.org/2000/svg">
<path d="M744.402 98.2588L769.182 109.302" stroke="white" stroke-width="8" stroke-linecap="round"/>
<path d="M751.385 75.6156L778.428 77.776" stroke="white" stroke-width="8" stroke-linecap="round"/>
<path d="M746.451 53.6504L770.951 41.9998" stroke="white" stroke-width="8" stroke-linecap="round"/>
<path d="M40.3218 98.2588L15.542 109.302" stroke="white" stroke-width="8" stroke-linecap="round"/>
<path d="M33.3394 75.6156L6.29623 77.776" stroke="white" stroke-width="8" stroke-linecap="round"/>
<path d="M38.2734 53.6504L13.7732 41.9998" stroke="white" stroke-width="8" stroke-linecap="round"/>
<g filter="url(#filter0_d_328_2)">
<g clip-path="url(#clip0_328_2)">
<rect x="98" width="591.726" height="130.421" rx="65.2106" fill="#F4D88B"/>
<path d="M182.838 92.0323C181.309 92.0323 180.02 91.5895 178.974 90.7039C177.927 89.7379 177.404 88.49 177.404 86.9604V55.4419C177.404 53.0267 176.196 51.8191 173.781 51.8191H167.864C166.415 51.8191 165.207 51.3763 164.241 50.4907C163.355 49.5247 162.913 48.317 162.913 46.8679C162.913 45.4188 163.355 44.2514 164.241 43.3659C165.207 42.3998 166.415 41.9167 167.864 41.9167H197.692C199.221 41.9167 200.429 42.3998 201.314 43.3659C202.281 44.2514 202.764 45.4188 202.764 46.8679C202.764 48.317 202.281 49.5247 201.314 50.4907C200.429 51.3763 199.221 51.8191 197.692 51.8191H191.895C189.48 51.8191 188.272 53.0267 188.272 55.4419V86.9604C188.272 88.49 187.749 89.7379 186.702 90.7039C185.736 91.5895 184.448 92.0323 182.838 92.0323ZM215.396 92.0323C213.867 92.0323 212.579 91.5493 211.532 90.5832C210.485 89.6171 209.962 88.4095 209.962 86.9604V46.5056C209.962 44.976 210.485 43.7282 211.532 42.7621C212.579 41.796 213.867 41.3129 215.396 41.3129C217.006 41.3129 218.295 41.796 219.261 42.7621C220.307 43.7282 220.83 44.976 220.83 46.5056V86.9604C220.83 88.49 220.307 89.7379 219.261 90.7039C218.295 91.5895 217.006 92.0323 215.396 92.0323ZM235.857 92.0323C234.247 92.0323 232.878 91.4285 231.751 90.2209C230.704 89.0133 230.302 87.6044 230.543 85.9943L235.615 47.2302C235.857 45.4591 236.581 44.0502 237.789 43.0036C238.996 41.8765 240.446 41.3129 242.136 41.3129C245.598 41.3129 247.852 42.8023 248.899 45.7811L257.111 69.4501C257.513 70.2552 257.916 70.6577 258.318 70.6577C258.882 70.6577 259.284 70.2552 259.526 69.4501L267.737 45.7811C268.784 42.8023 270.998 41.3129 274.379 41.3129C276.231 41.3129 277.72 41.8765 278.847 43.0036C280.055 44.0502 280.78 45.4591 281.021 47.2302L286.093 85.9943C286.335 87.6044 285.892 89.0133 284.765 90.2209C283.718 91.4285 282.39 92.0323 280.78 92.0323C279.33 92.0323 278.083 91.5895 277.036 90.7039C276.07 89.7379 275.506 88.5303 275.345 87.0811L273.534 61.8422C273.453 60.8761 273.131 60.3931 272.568 60.3931C272.004 60.3931 271.602 60.7956 271.36 61.6007L264.356 81.2846C263.229 84.2634 261.216 85.7528 258.318 85.7528C257.191 85.7528 256.064 85.3502 254.937 84.5452C253.89 83.7401 253.045 82.6935 252.401 81.4054L245.397 61.8422C245.155 61.1176 244.753 60.7554 244.189 60.7554C243.706 60.7554 243.384 61.2384 243.223 62.2045L241.291 87.0811C241.21 88.5303 240.647 89.7379 239.6 90.7039C238.554 91.5895 237.306 92.0323 235.857 92.0323ZM302.943 90.8247C300.608 90.8247 298.716 90.1001 297.267 88.651C295.818 87.2019 295.093 85.31 295.093 82.9753V49.4039C295.093 47.0692 295.778 45.2578 297.146 43.9697C298.515 42.6011 300.326 41.9167 302.581 41.9167H320.815C324.197 41.9167 325.887 43.5269 325.887 46.7472C325.887 48.1158 325.404 49.2831 324.438 50.2492C323.472 51.1348 322.265 51.5776 320.815 51.5776H308.377C306.767 51.5776 305.962 52.3826 305.962 53.9928V58.8232C305.962 60.4333 306.767 61.2384 308.377 61.2384H319.004C320.614 61.2384 321.862 61.6812 322.748 62.5668C323.633 63.4524 324.076 64.6197 324.076 66.0688C324.076 67.3569 323.553 68.484 322.506 69.4501C321.54 70.4162 320.373 70.8992 319.004 70.8992H308.377C306.767 70.8992 305.962 71.7043 305.962 73.3144V78.6279C305.962 80.238 306.767 81.0431 308.377 81.0431H322.023C323.553 81.0431 324.76 81.4859 325.646 82.3715C326.612 83.2571 327.095 84.4647 327.095 85.9943C327.095 87.3629 326.612 88.5303 325.646 89.4963C324.68 90.3819 323.472 90.8247 322.023 90.8247H302.943ZM358.367 92.0323C353.617 92.0323 349.31 90.9052 345.446 88.651C341.662 86.3163 338.643 83.1765 336.389 79.2317C334.215 75.2869 333.128 70.9395 333.128 66.1896C333.128 61.2787 334.215 56.9313 336.389 53.1475C338.643 49.2831 341.662 46.2641 345.446 44.0904C349.23 41.8362 353.537 40.7091 358.367 40.7091C363.198 40.7091 367.464 41.8362 371.168 44.0904C374.952 46.2641 377.89 49.2831 379.983 53.1475C382.157 56.9313 383.244 61.2787 383.244 66.1896C383.244 71.02 382.157 75.4076 379.983 79.3525C377.81 83.2168 374.831 86.3163 371.047 88.651C367.344 90.9052 363.117 92.0323 358.367 92.0323ZM358.367 82.3715C362.473 82.3715 365.814 80.8418 368.39 77.7826C371.047 74.7233 372.375 70.859 372.375 66.1896C372.375 61.5202 371.047 57.6961 368.39 54.7173C365.814 51.7386 362.473 50.2492 358.367 50.2492C354.181 50.2492 350.719 51.7386 347.982 54.7173C345.325 57.6961 343.997 61.5202 343.997 66.1896C343.997 70.859 345.325 74.7233 347.982 77.7826C350.719 80.8418 354.181 82.3715 358.367 82.3715ZM423.076 46.5056C423.076 45.0565 423.599 43.8489 424.646 42.8828C425.692 41.8362 426.98 41.3129 428.51 41.3129C430.04 41.3129 431.328 41.796 432.374 42.7621C433.421 43.7282 433.944 44.976 433.944 46.5056V72.7106C433.944 78.5877 432.012 83.2973 428.148 86.8396C424.283 90.3014 419.131 92.0323 412.69 92.0323C406.33 92.0323 401.218 90.3014 397.354 86.8396C393.57 83.2973 391.678 78.5877 391.678 72.7106V46.5056C391.678 44.976 392.161 43.7684 393.127 42.8828C394.174 41.9167 395.502 41.4337 397.112 41.4337C398.723 41.4337 400.011 41.9167 400.977 42.8828C402.023 43.7684 402.547 44.976 402.547 46.5056V72.7106C402.547 75.5284 403.472 77.8228 405.324 79.594C407.176 81.2846 409.631 82.13 412.69 82.13C415.83 82.13 418.326 81.2846 420.178 79.594C422.11 77.8228 423.076 75.5284 423.076 72.7106V46.5056ZM460.563 92.0323C459.034 92.0323 457.746 91.5895 456.699 90.7039C455.653 89.7379 455.129 88.49 455.129 86.9604V55.4419C455.129 53.0267 453.922 51.8191 451.506 51.8191H445.589C444.14 51.8191 442.932 51.3763 441.966 50.4907C441.081 49.5247 440.638 48.317 440.638 46.8679C440.638 45.4188 441.081 44.2514 441.966 43.3659C442.932 42.3998 444.14 41.9167 445.589 41.9167H475.417C476.947 41.9167 478.154 42.3998 479.04 43.3659C480.006 44.2514 480.489 45.4188 480.489 46.8679C480.489 48.317 480.006 49.5247 479.04 50.4907C478.154 51.3763 476.947 51.8191 475.417 51.8191H469.62C467.205 51.8191 465.998 53.0267 465.998 55.4419V86.9604C465.998 88.49 465.474 89.7379 464.428 90.7039C463.462 91.5895 462.174 92.0323 460.563 92.0323ZM509.448 66.3103C509.448 58.4207 510.937 52.3021 513.916 47.9548C516.975 43.5269 521.484 41.3129 527.441 41.3129C533.479 41.3129 538.028 43.5269 541.087 47.9548C544.146 52.3021 545.676 58.3804 545.676 66.1896C545.676 73.9988 544.146 80.2783 541.087 85.0282C538.028 89.6976 533.479 92.0323 527.441 92.0323C521.484 92.0323 516.975 89.7379 513.916 85.149C510.937 80.5601 509.448 74.2805 509.448 66.3103ZM520.075 66.3103C520.075 71.5433 520.598 75.4881 521.645 78.1449C522.772 80.7211 524.704 82.0092 527.441 82.0092C530.259 82.0092 532.231 80.6406 533.358 77.9033C534.485 75.1661 535.049 71.2213 535.049 66.0688C535.049 60.9164 534.485 57.2131 533.358 54.9589C532.312 52.6242 530.38 51.4568 527.562 51.4568C524.825 51.4568 522.892 52.6242 521.765 54.9589C520.638 57.2936 520.075 61.0774 520.075 66.3103ZM559.123 102.659C558.479 104.43 557.392 105.316 555.862 105.316C554.574 105.316 553.608 104.833 552.964 103.867C552.32 102.901 552.159 101.774 552.481 100.486L573.252 38.8977C573.896 37.2876 574.983 36.4825 576.512 36.4825C577.8 36.4825 578.807 36.9656 579.531 37.9317C580.256 38.8977 580.417 39.9846 580.014 41.1922L559.123 102.659ZM593.21 90.9455C591.681 90.9455 590.352 90.4222 589.225 89.3756C588.179 88.329 587.655 87.0409 587.655 85.5112C587.655 83.6596 588.46 81.9689 590.07 80.4393L599.611 71.6238C603.153 68.323 605.608 65.626 606.977 63.5329C608.346 61.3592 609.03 59.1855 609.03 57.0118C609.03 55.1601 608.466 53.6708 607.339 52.5437C606.293 51.4166 604.843 50.853 602.992 50.853C601.221 50.853 599.772 51.3763 598.644 52.4229C597.517 53.4695 596.753 54.8784 596.35 56.6495C596.108 57.8571 595.505 58.8635 594.539 59.6685C593.653 60.3931 592.526 60.7554 591.157 60.7554C589.708 60.7554 588.501 60.2723 587.535 59.3062C586.568 58.3402 586.126 57.1728 586.206 55.8042C586.367 51.5373 588.058 48.0755 591.278 45.4188C594.579 42.6816 598.685 41.3129 603.596 41.3129C608.587 41.3129 612.532 42.7621 615.43 45.6603C618.409 48.4781 619.898 52.1411 619.898 56.6495C619.898 59.4673 619.174 62.1642 617.725 64.7405C616.356 67.2362 614.263 69.8929 611.445 72.7106L604.682 79.4732C603.394 80.7613 603.676 81.4054 605.528 81.4054L616.517 81.1639C618.127 81.0834 619.415 81.5262 620.381 82.4922C621.347 83.3778 621.83 84.5854 621.83 86.1151C621.83 87.5642 621.388 88.7315 620.502 89.6171C619.617 90.5027 618.449 90.9455 617 90.9455H593.21Z" fill="white"/>
</g>
<rect x="104.038" y="6.03802" width="579.65" height="118.345" rx="59.1726" stroke="#FFF6BE" stroke-width="12.076"/>
</g>
<defs>
<filter id="filter0_d_328_2" x="98" y="0" width="591.726" height="164.234" filterUnits="userSpaceOnUse" color-interpolation-filters="sRGB">
<feFlood flood-opacity="0" result="BackgroundImageFix"/>
<feColorMatrix in="SourceAlpha" type="matrix" values="0 0 0 0 0 0 0 0 0 0 0 0 0 0 0 0 0 0 127 0" result="hardAlpha"/>
<feOffset dy="33.8129"/>
<feComposite in2="hardAlpha" operator="out"/>
<feColorMatrix type="matrix" values="0 0 0 0 0.713726 0 0 0 0 0.631373 0 0 0 0 0.172549 0 0 0 1 0"/>
<feBlend mode="normal" in2="BackgroundImageFix" result="effect1_dropShadow_328_2"/>
<feBlend mode="normal" in="SourceGraphic" in2="effect1_dropShadow_328_2" result="shape"/>
</filter>
<clipPath id="clip0_328_2">
<rect x="98" width="591.726" height="130.421" rx="65.2106" fill="white"/>
</clipPath>
</defs>
</svg>
