<svg width="811" height="268" viewBox="0 0 811 268" fill="none" xmlns="http://www.w3.org/2000/svg">
<g filter="url(#filter0_d_328_2)">
<rect x="100" width="610" height="260" rx="38" fill="#53A6D9"/>
<rect x="102" y="2" width="606" height="256" rx="36" stroke="white" stroke-width="4"/>
</g>
<path d="M770.402 146.259L795.182 157.302" stroke="white" stroke-width="8" stroke-linecap="round"/>
<path d="M777.385 123.616L804.428 125.776" stroke="white" stroke-width="8" stroke-linecap="round"/>
<path d="M772.451 101.65L796.951 89.9998" stroke="white" stroke-width="8" stroke-linecap="round"/>
<path d="M40.322 150.259L15.5423 161.302" stroke="white" stroke-width="8" stroke-linecap="round"/>
<path d="M33.3394 127.616L6.29623 129.776" stroke="white" stroke-width="8" stroke-linecap="round"/>
<path d="M38.2734 105.65L13.7732 93.9998" stroke="white" stroke-width="8" stroke-linecap="round"/>
<g filter="url(#filter1_d_328_2)">
<rect x="492.23" y="50.397" width="161.129" height="143.33" rx="12.4493" fill="#89CCF7"/>
</g>
<path d="M547.215 85.6604H541.483C539.391 85.6608 537.355 86.3293 535.684 87.5649C534.014 88.8005 532.799 90.5359 532.223 92.5087C531.647 94.4816 531.742 96.5847 532.493 98.4999C533.245 100.415 534.611 102.039 536.387 103.124C536.666 103.292 536.989 103.379 537.316 103.375H608.271C608.599 103.379 608.921 103.292 609.2 103.124C610.976 102.039 612.343 100.415 613.094 98.4999C613.845 96.5847 613.94 94.4816 613.364 92.5087C612.789 90.5359 611.574 88.8005 609.903 87.5649C608.232 86.3293 606.197 85.6608 604.104 85.6604H598.372C604.104 85.6604 598.372 85.6604 590.029 85.6604H555.563C529.489 85.6604 544.449 89.2026 547.215 85.6604Z" fill="#BEE5FF"/>
<path fill-rule="evenodd" clip-rule="evenodd" d="M607.423 112.34C607.447 112.207 607.441 112.069 607.406 111.938C607.37 111.807 607.306 111.685 607.217 111.581C607.128 111.477 607.018 111.393 606.893 111.336C606.768 111.278 606.631 111.249 606.493 111.249H539.095C538.957 111.249 538.821 111.278 538.696 111.336C538.57 111.393 538.46 111.477 538.371 111.581C538.282 111.685 538.218 111.807 538.182 111.938C538.147 112.069 538.141 112.207 538.165 112.34L542.886 154.26C543.363 156.945 544.695 159.411 546.689 161.304C548.683 163.196 551.236 164.416 553.981 164.789C566.463 166.498 579.125 166.498 591.608 164.789C594.352 164.416 596.906 163.196 598.899 161.304C600.893 159.411 602.225 156.945 602.702 154.26L607.423 112.34ZM566.893 121.699C566.893 120.775 566.52 119.889 565.856 119.236C565.192 118.583 564.291 118.216 563.352 118.216C562.413 118.216 561.512 118.583 560.848 119.236C560.184 119.889 559.811 120.775 559.811 121.699V145.558C559.811 146.482 560.184 147.368 560.848 148.022C561.512 148.675 562.413 149.042 563.352 149.042C564.291 149.042 565.192 148.675 565.856 148.022C566.52 147.368 566.893 146.482 566.893 145.558V121.699ZM582.236 118.216C583.175 118.216 584.076 118.583 584.74 119.236C585.404 119.889 585.777 120.775 585.777 121.699V145.558C585.777 146.482 585.404 147.368 584.74 148.022C584.076 148.675 583.175 149.042 582.236 149.042C581.297 149.042 580.397 148.675 579.733 148.022C579.068 147.368 578.695 146.482 578.695 145.558V121.699C578.695 120.775 579.068 119.889 579.733 119.236C580.397 118.583 581.297 118.216 582.236 118.216Z" fill="#BEE5FF"/>
<path fill-rule="evenodd" clip-rule="evenodd" d="M545.142 102.645C545.122 102.733 545.127 102.824 545.156 102.91C545.184 102.997 545.235 103.078 545.306 103.146C545.377 103.215 545.465 103.27 545.565 103.308C545.665 103.346 545.774 103.366 545.884 103.366L599.703 103.366C599.814 103.366 599.923 103.346 600.022 103.308C600.122 103.27 600.211 103.215 600.282 103.146C600.352 103.078 600.404 102.997 600.432 102.91C600.461 102.824 600.465 102.733 600.446 102.645L596.665 84.6107C596.284 82.8371 595.22 81.2077 593.628 79.9576C592.036 78.7075 589.997 77.9013 587.805 77.6552C577.838 76.5261 567.727 76.5261 557.759 77.6552C555.568 77.9013 553.529 78.7075 551.936 79.9576C550.344 81.2077 549.281 82.837 548.9 84.6107L545.142 102.645ZM577.495 99.7443C577.495 100.355 577.804 97.658 578.334 98.0895C578.865 98.5211 579.584 98.7635 580.334 98.7635C581.084 98.7635 581.803 98.5211 582.333 98.0895C582.863 97.658 583.149 100.889 583.149 100.279L583.149 90.3586C583.149 89.7483 582.852 89.163 582.321 88.7314C581.791 88.2999 581.072 88.0575 580.322 88.0575C579.572 88.0575 578.853 88.2999 578.323 88.7314C577.792 89.163 577.495 89.7483 577.495 90.3586L577.495 99.7443ZM565.254 98.7635C564.504 98.7635 563.785 98.5211 563.255 98.0895C562.725 97.658 563.651 94.5762 562.823 100.951L562.415 90.3586C562.415 89.7483 562.713 89.163 563.243 88.7314C563.773 88.2999 564.493 88.0575 565.242 88.0575C565.992 88.0575 566.711 88.2999 567.242 88.7314C567.772 89.163 568.07 89.7483 568.07 90.3586L568.659 98.0895C568.659 98.6998 567.784 97.658 567.253 98.0895C566.723 98.5211 566.004 98.7635 565.254 98.7635Z" fill="#BEE5FF"/>
<g filter="url(#filter2_d_328_2)">
<rect x="156.566" y="47.4263" width="161.129" height="143.33" rx="12.4493" fill="#89CCF7"/>
</g>
<path d="M192.957 123.633L192.957 123.633C192.372 124.025 191.938 124.603 191.72 125.273C191.503 125.943 191.514 126.668 191.749 127.332L191.749 127.332L195.514 137.973C195.514 137.973 195.514 137.973 195.514 137.973C196.851 141.759 199.714 146.606 203.088 150.93C206.452 155.242 210.424 159.163 214.04 160.985C221.123 164.555 229.273 165.187 236.747 162.742L241.308 161.251C242.221 163.669 243.164 166.075 244.138 168.469L244.138 168.47L245.753 172.423C245.753 172.424 245.753 172.424 245.754 172.424C246.035 173.117 246.489 173.726 247.071 174.192C247.654 174.659 248.347 174.966 249.081 175.083C249.816 175.199 250.568 175.12 251.261 174.852C251.954 174.584 252.564 174.137 253.03 173.557L253.03 173.557C260.062 164.81 265.376 154.768 268.692 143.966L268.693 143.966L269.736 140.564L269.736 140.564C269.93 139.932 269.922 139.255 269.716 138.626C269.511 137.998 269.117 137.447 268.587 137.052L268.587 137.052L265.735 134.924L265.734 134.924C256.675 128.172 246.454 123.214 235.613 120.315M192.957 123.633L235.384 121.174M192.957 123.633C193.542 123.242 194.241 123.061 194.942 123.121C195.643 123.18 196.303 123.475 196.819 123.954L196.861 123.993L196.898 124.038L206.317 135.377M192.957 123.633L196.214 124.606M235.613 120.315L235.384 121.174M235.613 120.315C235.614 120.315 235.614 120.315 235.614 120.315L235.384 121.174M235.613 120.315C235.028 120.158 234.417 120.128 233.82 120.228C233.223 120.328 232.655 120.554 232.154 120.893C231.652 121.232 231.229 121.674 230.911 122.191C230.593 122.707 230.388 123.286 230.307 123.889L230.306 123.899L230.305 123.908C230.245 124.446 230.28 124.99 230.409 125.516L230.41 125.52L231.446 129.669L231.446 129.67C232.216 132.751 233.038 135.819 233.911 138.873M235.384 121.174C234.92 121.05 234.437 121.026 233.966 121.105C233.495 121.184 233.047 121.362 232.651 121.63C232.255 121.897 231.92 122.247 231.668 122.657C231.416 123.066 231.253 123.527 231.189 124.007C231.14 124.44 231.169 124.88 231.273 125.305L232.309 129.454C233.136 132.763 234.022 136.056 234.968 139.333M233.911 138.873L234.565 138.541L234.968 139.333M233.911 138.873L233.131 139.27C233.131 139.27 233.131 139.27 233.13 139.27M233.911 138.873C233.978 139.109 234.046 139.344 234.114 139.58L234.968 139.333M234.968 139.333L233.533 140.063C229.061 142.327 224.002 143.149 219.026 142.422C214.05 141.694 209.392 139.451 205.67 135.989M205.67 135.989L196.214 124.606M205.67 135.989L206.275 135.338C206.289 135.351 206.303 135.364 206.317 135.377M205.67 135.989L233.13 139.27M196.214 124.606C195.842 124.26 195.368 124.049 194.867 124.007M196.214 124.606L194.867 124.007M206.317 135.377C209.902 138.695 214.378 140.844 219.155 141.542C223.949 142.243 228.823 141.45 233.13 139.27M206.317 135.377L233.13 139.27M194.867 124.007C194.366 123.964 193.868 124.093 193.451 124.372L194.867 124.007Z" fill="#BEE5FF" stroke="#BEE5FF" stroke-width="1.77847"/>
<path d="M263.877 138.957L263.876 138.957L243.685 133.695C243.685 133.695 243.685 133.695 243.685 133.695C242.785 133.459 241.836 133.481 240.949 133.759C240.061 134.037 239.271 134.56 238.672 135.269C238.073 135.977 237.689 136.841 237.569 137.759C237.448 138.677 237.595 139.609 237.992 140.447L241.472 147.8C234.437 149.23 227.117 148.468 220.526 145.605C213.599 142.597 207.86 137.433 204.183 130.904C200.506 124.375 199.092 116.839 200.156 109.443C201.219 102.048 204.703 95.1975 210.076 89.9374C215.45 84.6773 222.419 81.2965 229.922 80.3129C237.425 79.3294 245.047 80.7974 251.625 84.4919C258.203 88.1863 263.375 93.9037 266.354 100.77C267.866 104.255 268.23 106.077 268.266 107.066C268.283 107.542 268.225 107.835 268.17 108.049C268.165 108.066 268.153 108.108 268.14 108.159C268.114 108.251 268.081 108.371 268.068 108.424C268.043 108.528 268.015 108.667 268.012 108.827C267.881 109.408 267.859 110.008 267.948 110.598C268.043 111.23 268.264 111.836 268.596 112.383C268.928 112.93 269.365 113.406 269.883 113.785C270.4 114.164 270.987 114.437 271.61 114.591C272.234 114.745 272.881 114.776 273.517 114.683C274.152 114.59 274.763 114.373 275.315 114.046C275.867 113.719 276.349 113.288 276.733 112.776C277.117 112.264 277.395 111.681 277.552 111.062L276.691 110.844L277.552 111.062C277.575 110.972 277.599 110.878 277.625 110.78C277.87 109.841 278.216 108.518 278.084 106.478C277.939 104.248 277.23 101.206 275.306 96.8116C271.432 87.9618 264.721 80.6182 256.209 75.9105C247.696 71.203 237.855 69.3917 228.199 70.7547C218.544 72.1177 209.608 76.5798 202.77 83.4556C195.931 90.3316 191.569 99.24 190.359 108.809C189.148 118.378 191.157 128.074 196.073 136.402C200.989 144.731 208.54 151.229 217.56 154.898C226.492 158.532 236.375 159.192 245.716 156.783L249.301 164.376C249.302 164.377 249.302 164.377 249.302 164.378C249.696 165.217 250.323 165.925 251.109 166.422C251.895 166.918 252.807 167.182 253.738 167.184C254.669 167.185 255.582 166.924 256.37 166.429L255.897 165.676L256.37 166.429C257.157 165.935 257.787 165.228 258.183 164.39C258.183 164.389 258.183 164.389 258.183 164.389L267.06 145.715C267.366 145.071 267.525 144.367 267.526 143.655C267.527 142.942 267.37 142.238 267.065 141.593C266.761 140.948 266.317 140.378 265.766 139.923C265.215 139.468 264.57 139.138 263.877 138.957Z" fill="#BEE5FF" stroke="#BEE5FF" stroke-width="1.77847"/>
<defs>
<filter id="filter0_d_328_2" x="100" y="0" width="610" height="268" filterUnits="userSpaceOnUse" color-interpolation-filters="sRGB">
<feFlood flood-opacity="0" result="BackgroundImageFix"/>
<feColorMatrix in="SourceAlpha" type="matrix" values="0 0 0 0 0 0 0 0 0 0 0 0 0 0 0 0 0 0 127 0" result="hardAlpha"/>
<feOffset dy="8"/>
<feComposite in2="hardAlpha" operator="out"/>
<feColorMatrix type="matrix" values="0 0 0 0 0.172549 0 0 0 0 0.513726 0 0 0 0 0.713726 0 0 0 1 0"/>
<feBlend mode="normal" in2="BackgroundImageFix" result="effect1_dropShadow_328_2"/>
<feBlend mode="normal" in="SourceGraphic" in2="effect1_dropShadow_328_2" result="shape"/>
</filter>
<filter id="filter1_d_328_2" x="492.23" y="50.397" width="161.129" height="164.671" filterUnits="userSpaceOnUse" color-interpolation-filters="sRGB">
<feFlood flood-opacity="0" result="BackgroundImageFix"/>
<feColorMatrix in="SourceAlpha" type="matrix" values="0 0 0 0 0 0 0 0 0 0 0 0 0 0 0 0 0 0 127 0" result="hardAlpha"/>
<feOffset dy="21.3417"/>
<feComposite in2="hardAlpha" operator="out"/>
<feColorMatrix type="matrix" values="0 0 0 0 0.172549 0 0 0 0 0.513726 0 0 0 0 0.713726 0 0 0 1 0"/>
<feBlend mode="normal" in2="BackgroundImageFix" result="effect1_dropShadow_328_2"/>
<feBlend mode="normal" in="SourceGraphic" in2="effect1_dropShadow_328_2" result="shape"/>
</filter>
<filter id="filter2_d_328_2" x="156.566" y="47.4263" width="161.129" height="164.671" filterUnits="userSpaceOnUse" color-interpolation-filters="sRGB">
<feFlood flood-opacity="0" result="BackgroundImageFix"/>
<feColorMatrix in="SourceAlpha" type="matrix" values="0 0 0 0 0 0 0 0 0 0 0 0 0 0 0 0 0 0 127 0" result="hardAlpha"/>
<feOffset dy="21.3417"/>
<feComposite in2="hardAlpha" operator="out"/>
<feColorMatrix type="matrix" values="0 0 0 0 0.172549 0 0 0 0 0.513726 0 0 0 0 0.713726 0 0 0 1 0"/>
<feBlend mode="normal" in2="BackgroundImageFix" result="effect1_dropShadow_328_2"/>
<feBlend mode="normal" in="SourceGraphic" in2="effect1_dropShadow_328_2" result="shape"/>
</filter>
</defs>
</svg>
