<svg width="785" height="189" viewBox="0 0 785 189" fill="none" xmlns="http://www.w3.org/2000/svg">
<g filter="url(#filter0_d_328_2)">
<g clip-path="url(#clip0_328_2)">
<rect x="101.257" y="0.193848" width="584.743" height="149.65" rx="74.8249" fill="#F4D88B"/>
<path d="M189.8 105.723C188.137 105.723 186.705 105.169 185.505 104.06C184.304 102.859 183.703 101.474 183.703 99.9033V57.2254C183.703 54.5465 184.535 52.3757 186.197 50.7129C187.952 49.0501 190.262 48.2187 193.126 48.2187H206.982C212.617 48.2187 217.143 49.8815 220.561 53.2071C224.072 56.5326 225.827 60.6896 225.827 65.6779C225.827 68.6339 225.042 71.4052 223.471 73.9918C221.901 76.5783 219.638 78.6568 216.682 80.2272C217.975 80.8738 219.13 81.7514 220.146 82.8599C221.254 83.9684 222.132 85.3079 222.778 86.8783L227.351 97.4092C227.813 98.5177 228.044 99.4415 228.044 100.18C228.044 101.843 227.397 103.229 226.104 104.337C224.811 105.354 223.379 105.862 221.808 105.862C220.792 105.862 219.776 105.584 218.76 105.03C217.836 104.476 217.097 103.598 216.543 102.397L211.278 89.7881C210.354 87.5711 209.107 86.0007 207.536 85.0769C206.058 84.0608 204.303 83.5527 202.271 83.5527H198.668C196.821 83.5527 195.897 84.4765 195.897 86.324V99.9033C195.897 101.474 195.296 102.859 194.096 104.06C192.895 105.169 191.463 105.723 189.8 105.723ZM197.975 73.1604H206.428C208.737 73.1604 210.539 72.5137 211.832 71.2205C213.217 69.9272 213.91 68.2644 213.91 66.2321C213.91 64.1075 213.217 62.4447 211.832 61.2438C210.539 59.9505 208.737 59.3039 206.428 59.3039H197.975C196.59 59.3039 195.897 59.9967 195.897 61.3824V71.0819C195.897 72.4675 196.59 73.1604 197.975 73.1604ZM245.348 104.337C242.669 104.337 240.498 103.506 238.836 101.843C237.173 100.18 236.341 98.0096 236.341 95.3307V56.8097C236.341 54.1308 237.127 52.0524 238.697 50.5743C240.267 49.0039 242.346 48.2187 244.932 48.2187H265.856C269.736 48.2187 271.675 50.0663 271.675 53.7613C271.675 55.3317 271.121 56.6712 270.013 57.7797C268.904 58.7958 267.519 59.3039 265.856 59.3039H251.584C249.736 59.3039 248.812 60.2277 248.812 62.0752V67.6178C248.812 69.4653 249.736 70.3891 251.584 70.3891H263.777C265.625 70.3891 267.057 70.8971 268.073 71.9133C269.089 72.9294 269.597 74.2689 269.597 75.9317C269.597 77.4097 268.997 78.703 267.796 79.8115C266.687 80.92 265.348 81.4742 263.777 81.4742H251.584C249.736 81.4742 248.812 82.398 248.812 84.2455V90.3424C248.812 92.1899 249.736 93.1137 251.584 93.1137H267.241C268.997 93.1137 270.382 93.6217 271.398 94.6379C272.507 95.654 273.061 97.0397 273.061 98.7948C273.061 100.365 272.507 101.705 271.398 102.813C270.29 103.829 268.904 104.337 267.241 104.337H245.348ZM284.834 105.723C283.356 105.723 281.924 105.169 280.538 104.06C279.245 102.952 278.598 101.52 278.598 99.7648C278.598 99.0258 278.737 98.2406 279.014 97.4092L296.473 51.8214C297.12 50.1586 298.182 48.9116 299.66 48.0802C301.138 47.2488 302.662 46.8331 304.233 46.8331C305.896 46.8331 307.466 47.2488 308.944 48.0802C310.514 48.9116 311.623 50.1586 312.269 51.8214L330.976 97.132C331.16 97.5015 331.253 97.8711 331.253 98.2406C331.253 98.6101 331.253 98.9796 331.253 99.3491C331.253 101.289 330.606 102.813 329.313 103.922C328.02 105.03 326.588 105.584 325.017 105.584C323.909 105.584 322.8 105.261 321.692 104.615C320.676 104.06 319.937 103.137 319.475 101.843L315.456 91.0352C315.364 90.4809 314.995 90.2038 314.348 90.2038H295.642C294.995 90.2038 294.579 90.4809 294.395 91.0352L290.515 101.982C289.868 103.183 289.037 104.106 288.021 104.753C287.005 105.4 285.942 105.723 284.834 105.723ZM300.63 79.3958H308.805C309.36 79.3958 309.775 79.211 310.052 78.8415C310.422 78.3796 310.514 77.8254 310.33 77.1787L306.727 67.3407C306.173 65.8626 305.48 65.1236 304.648 65.1236C303.817 65.1236 303.124 65.9088 302.57 67.4792L299.106 77.3173C298.921 77.8716 298.967 78.3796 299.244 78.8415C299.522 79.211 299.983 79.3958 300.63 79.3958ZM349.011 104.337C346.147 104.337 343.838 103.552 342.083 101.982C340.42 100.319 339.588 98.1482 339.588 95.4693V56.8097C339.588 54.1308 340.374 52.0524 341.944 50.5743C343.514 49.0039 345.593 48.2187 348.179 48.2187H360.789C366.886 48.2187 372.059 49.4658 376.308 51.96C380.557 54.3618 383.79 57.6873 386.007 61.9366C388.317 66.0936 389.472 70.851 389.472 76.2088C389.472 81.7514 388.317 86.6473 386.007 90.8966C383.698 95.146 380.557 98.4715 376.585 100.873C372.613 103.183 368.179 104.337 363.283 104.337H349.011ZM355.523 93.2522H360.927C366.193 93.2522 370.211 91.7742 372.982 88.8182C375.754 85.7697 377.093 81.5666 377.001 76.2088C376.908 70.6662 375.477 66.4631 372.705 63.5994C369.934 60.7357 365.962 59.3039 360.789 59.3039H355.523C353.214 59.3039 352.059 60.4586 352.059 62.768V89.7881C352.059 92.0975 353.214 93.2522 355.523 93.2522ZM417.883 105.723C416.128 105.723 414.65 105.215 413.449 104.199C412.248 103.09 411.647 101.658 411.647 99.9033V85.3541C411.647 84.3379 411.555 83.368 411.37 82.4442C411.278 81.4281 410.908 80.4581 410.262 79.5343L394.742 57.2254C394.003 56.0245 393.634 54.916 393.634 53.8999C393.634 52.1447 394.281 50.6667 395.574 49.4658C396.867 48.1726 398.391 47.5259 400.146 47.5259C402.364 47.5259 404.026 48.4497 405.135 50.2972L415.389 66.5093C416.22 67.8025 417.098 68.4492 418.021 68.4492C418.945 68.4492 419.823 67.8025 420.654 66.5093L430.631 50.2972C431.739 48.4497 433.402 47.5259 435.619 47.5259C437.467 47.5259 438.991 48.1726 440.192 49.4658C441.485 50.6667 442.132 52.1447 442.132 53.8999C442.132 54.916 441.762 56.0245 441.023 57.2254L425.504 79.5343C424.857 80.4581 424.441 81.4281 424.257 82.4442C424.164 83.368 424.118 84.3379 424.118 85.3541V99.9033C424.118 101.658 423.518 103.09 422.317 104.199C421.208 105.215 419.73 105.723 417.883 105.723ZM495.319 105.723C493.656 105.723 492.178 105.123 490.885 103.922C489.684 102.721 489.083 101.335 489.083 99.7648V63.0452C489.083 61.7519 488.529 61.4286 487.421 62.0752L484.926 63.4608C484.557 63.6456 484.187 63.7842 483.818 63.8765C483.448 63.8765 483.079 63.8765 482.709 63.8765C480.954 63.8765 479.522 63.3223 478.414 62.2138C477.305 61.0129 476.751 59.5349 476.751 57.7797C476.751 55.3779 478.044 53.6228 480.631 52.5142L491.3 48.2187C492.501 47.7569 493.564 47.5259 494.487 47.5259C496.612 47.5259 498.321 48.1726 499.614 49.4658C501 50.7591 501.693 52.4681 501.693 54.5927L501.554 100.042C501.554 101.705 500.954 103.09 499.753 104.199C498.644 105.215 497.166 105.723 495.319 105.723ZM524.007 117.917C523.268 119.949 522.021 120.965 520.266 120.965C518.788 120.965 517.679 120.411 516.94 119.302C516.201 118.194 516.016 116.901 516.386 115.423L540.219 44.7546C540.958 42.9071 542.205 41.9833 543.96 41.9833C545.438 41.9833 546.593 42.5376 547.424 43.6461C548.256 44.7546 548.441 46.0017 547.979 47.3874L524.007 117.917ZM563.12 104.476C561.365 104.476 559.841 103.876 558.547 102.675C557.347 101.474 556.746 99.9957 556.746 98.2406C556.746 96.1159 557.67 94.176 559.517 92.4208L570.464 82.3056C574.529 78.5182 577.346 75.4236 578.916 73.0218C580.487 70.5276 581.272 68.0335 581.272 65.5393C581.272 63.4147 580.625 61.7057 579.332 60.4124C578.131 59.1192 576.468 58.4725 574.344 58.4725C572.312 58.4725 570.649 59.073 569.356 60.2739C568.062 61.4748 567.185 63.0913 566.723 65.1236C566.446 66.5093 565.753 67.664 564.644 68.5877C563.628 69.4191 562.335 69.8348 560.764 69.8348C559.102 69.8348 557.716 69.2806 556.608 68.172C555.499 67.0635 554.991 65.7241 555.083 64.1537C555.268 59.2577 557.208 55.2855 560.903 52.2371C564.69 49.0963 569.402 47.5259 575.037 47.5259C580.764 47.5259 585.29 49.1887 588.616 52.5142C592.034 55.7474 593.743 59.9505 593.743 65.1236C593.743 68.3568 592.911 71.4514 591.249 74.4075C589.678 77.2711 587.277 80.3195 584.043 83.5527L576.284 91.3123C574.806 92.7904 575.129 93.5294 577.254 93.5294L589.863 93.2522C591.711 93.1599 593.189 93.6679 594.297 94.7764C595.406 95.7926 595.96 97.1782 595.96 98.9334C595.96 100.596 595.452 101.936 594.436 102.952C593.42 103.968 592.08 104.476 590.417 104.476H563.12Z" fill="white"/>
</g>
<rect x="108.186" y="7.12208" width="570.886" height="135.793" rx="67.8967" stroke="#FFF6BE" stroke-width="13.8565"/>
</g>
<path d="M744.402 115.259L769.182 126.302" stroke="white" stroke-width="8" stroke-linecap="round"/>
<path d="M751.385 92.6156L778.428 94.776" stroke="white" stroke-width="8" stroke-linecap="round"/>
<path d="M746.451 70.6504L770.951 58.9998" stroke="white" stroke-width="8" stroke-linecap="round"/>
<path d="M40.322 115.259L15.5423 126.302" stroke="white" stroke-width="8" stroke-linecap="round"/>
<path d="M33.3394 92.6156L6.29623 94.776" stroke="white" stroke-width="8" stroke-linecap="round"/>
<path d="M38.2734 70.6504L13.7732 58.9998" stroke="white" stroke-width="8" stroke-linecap="round"/>
<defs>
<filter id="filter0_d_328_2" x="101.257" y="0.193848" width="584.743" height="188.448" filterUnits="userSpaceOnUse" color-interpolation-filters="sRGB">
<feFlood flood-opacity="0" result="BackgroundImageFix"/>
<feColorMatrix in="SourceAlpha" type="matrix" values="0 0 0 0 0 0 0 0 0 0 0 0 0 0 0 0 0 0 127 0" result="hardAlpha"/>
<feOffset dy="38.7981"/>
<feComposite in2="hardAlpha" operator="out"/>
<feColorMatrix type="matrix" values="0 0 0 0 0.713726 0 0 0 0 0.632549 0 0 0 0 0.172549 0 0 0 1 0"/>
<feBlend mode="normal" in2="BackgroundImageFix" result="effect1_dropShadow_328_2"/>
<feBlend mode="normal" in="SourceGraphic" in2="effect1_dropShadow_328_2" result="shape"/>
</filter>
<clipPath id="clip0_328_2">
<rect x="101.257" y="0.193848" width="584.743" height="149.65" rx="74.8249" fill="white"/>
</clipPath>
</defs>
</svg>
